<?xml version="1.0" encoding="UTF-8" standalone="no"?>
<!-- Created with Inkscape (http://www.inkscape.org/) -->

<svg
   xmlns:dc="http://purl.org/dc/elements/1.1/"
   xmlns:cc="http://creativecommons.org/ns#"
   xmlns:rdf="http://www.w3.org/1999/02/22-rdf-syntax-ns#"
   xmlns:svg="http://www.w3.org/2000/svg"
   xmlns="http://www.w3.org/2000/svg"
   xmlns:sodipodi="http://sodipodi.sourceforge.net/DTD/sodipodi-0.dtd"
   xmlns:inkscape="http://www.inkscape.org/namespaces/inkscape"
   width="321.76968mm"
   height="202.51822mm"
   viewBox="0 0 1140.1288 717.58424"
   id="svg2"
   version="1.1"
   inkscape:version="0.91 r13725"
   sodipodi:docname="Katze.svg">
  <defs
     id="defs4" />
  <sodipodi:namedview
     id="base"
     pagecolor="#ffffff"
     bordercolor="#666666"
     borderopacity="1.0"
     inkscape:pageopacity="0.0"
     inkscape:pageshadow="2"
     inkscape:zoom="0.49497475"
     inkscape:cx="-37.638104"
     inkscape:cy="633.51302"
     inkscape:document-units="px"
     inkscape:current-layer="layer1"
     showgrid="false"
     fit-margin-top="0"
     fit-margin-left="0"
     fit-margin-right="0"
     fit-margin-bottom="0"
     inkscape:window-width="1920"
     inkscape:window-height="1017"
     inkscape:window-x="-8"
     inkscape:window-y="-8"
     inkscape:window-maximized="1" />
  <metadata
     id="metadata7">
    <rdf:RDF>
      <cc:Work
         rdf:about="">
        <dc:format>image/svg+xml</dc:format>
        <dc:type
           rdf:resource="http://purl.org/dc/dcmitype/StillImage" />
        <dc:title></dc:title>
      </cc:Work>
    </rdf:RDF>
  </metadata>
  <g
     inkscape:label="Ebene 1"
     inkscape:groupmode="layer"
     id="layer1"
     transform="translate(-106.57141,17.495033)">
    <path
       style="fill:#d45500;fill-opacity:1;fill-rule:evenodd;stroke:#000000;stroke-width:4;stroke-linecap:butt;stroke-linejoin:miter;stroke-miterlimit:4;stroke-dasharray:none;stroke-opacity:1"
       d="m 146.10324,159.86669 c -12.3796,-43.3348 -19.88902,-95.38239 3.7045,-128.142647 37.37656,15.544778 58.80936,38.998506 80.60757,90.858777"
       id="path4139"
       inkscape:connector-curvature="0"
       sodipodi:nodetypes="ccc" />
    <path
       style="fill:#d45500;fill-rule:evenodd;stroke:#000000;stroke-width:4;stroke-linecap:butt;stroke-linejoin:miter;stroke-miterlimit:4;stroke-dasharray:none;stroke-opacity:1"
       d="m 404.28571,520.93363 0,104.28572 c 0,0 -51.11283,-1.0637 -55.71428,20 -2.84743,13.03444 11.9174,26.42563 24.28571,31.42857 27.44419,11.10107 85.71429,-2.85714 85.71429,-2.85714 l -2.85714,-144.28572"
       id="path4792"
       inkscape:connector-curvature="0"
       sodipodi:nodetypes="ccsscc" />
    <path
       sodipodi:nodetypes="ccsscc"
       inkscape:connector-curvature="0"
       id="path4794"
       d="m 804.28571,509.50506 0,104.28572 c 0,0 -51.11283,-1.0637 -55.71428,20 -2.84743,13.03444 11.9174,26.42563 24.28571,31.42857 27.44419,11.10107 85.71429,-2.85714 85.71429,-2.85714 l -2.85714,-144.28572"
       style="fill:#d45500;fill-rule:evenodd;stroke:#000000;stroke-width:4;stroke-linecap:butt;stroke-linejoin:miter;stroke-miterlimit:4;stroke-dasharray:none;stroke-opacity:1" />
    <path
       style="fill:#d45500;fill-opacity:1;fill-rule:evenodd;stroke:#000000;stroke-width:4;stroke-linecap:butt;stroke-linejoin:miter;stroke-miterlimit:4;stroke-dasharray:none;stroke-opacity:1"
       d="m 874.28571,270.93363 c 0,0 107.54106,-18.58112 139.99999,-57.14285 38.6164,-45.87692 -7.3568,-137.158815 38.5714,-175.71429 47.3301,-39.7323748 109.8221,-49.489266 166.2858,-53.428572 16.49,-1.150459 25.2353,11.1845022 25.1428,27.714287 -0.075,13.485302 -28.4344,21.636097 -39.9999,28.571428 -33.6769,20.194598 -72.6585,14.703575 -101.4287,41.428571 -35.6364,33.103006 -10.1433,95.598706 -29.9999,139.999996 -7.4026,16.55295 -28.6098,34.4978 -42.8572,45.71429 -35.87405,28.2424 -131.42857,38.57143 -131.42857,38.57143"
       id="path4805"
       inkscape:connector-curvature="0"
       sodipodi:nodetypes="cssssssssc" />
    <path
       style="fill:#d45500;fill-rule:evenodd;stroke:#000000;stroke-width:4;stroke-linecap:butt;stroke-linejoin:miter;stroke-miterlimit:4;stroke-dasharray:none;stroke-opacity:1"
       d="m 488.57143,226.64792 c 0,0 114.18856,-21.784 171.42857,-17.14286 69.76941,5.65705 146.05408,13.38113 202.85714,54.28572 27.32979,19.68052 53.86376,50.65811 55.71429,84.28571 6.32874,115.00487 -7.14286,325.71429 -7.14286,325.71429 0,0 -36.45624,24.92489 -57.14286,24.28571 -28.73573,-0.88789 -78.19255,-9.84116 -77.14285,-38.57143 0.95895,-26.24645 72.85714,-30 72.85714,-30 l 1.42857,-108.57143 c 0,0 -114.74033,39.62409 -174.57143,42.85715 -57.47031,3.10549 -171.14285,-22.85715 -171.14285,-22.85715 0,0 14.506,87.89666 1.42857,115.42857 -9.89164,20.82486 -32.69878,34.37057 -55.71429,35.71429 -21.76913,1.27096 -59.95081,-12.47958 -60,-34.28572 C 391.38178,637.04509 450,632.07649 450,632.07649 l -7.14286,-102.57143 c 0,0 -115.02143,-25.14393 -144.28571,-62.85714 -23.71099,-30.55662 -37.14286,-81.42857 -37.14286,-81.42857"
       id="path4790"
       inkscape:connector-curvature="0"
       sodipodi:nodetypes="casscssccacsssccsc" />
    <path
       sodipodi:nodetypes="ccc"
       inkscape:connector-curvature="0"
       id="path4141"
       d="M 451.54723,157.18285 C 463.92683,113.84805 487.8438,64.4843 464.25028,31.724043 426.87372,47.268821 402.41047,73.753007 380.61226,125.61328"
       style="fill:#d45500;fill-opacity:1;fill-rule:evenodd;stroke:#000000;stroke-width:4;stroke-linecap:butt;stroke-linejoin:miter;stroke-miterlimit:4;stroke-dasharray:none;stroke-opacity:1" />
    <path
       style="fill:#803300;fill-rule:evenodd;stroke:#000000;stroke-width:4;stroke-linecap:butt;stroke-linejoin:miter;stroke-opacity:1;fill-opacity:1;stroke-miterlimit:4;stroke-dasharray:none"
       d="m 474.26694,231.37842 c 21.36669,38.26324 32.0191,72.24077 38.38579,121.2183 13.40803,-44.52841 16.10177,-86.91397 8.08122,-129.29952"
       id="path4821"
       inkscape:connector-curvature="0"
       sodipodi:nodetypes="ccc" />
    <path
       style="fill:#d45500;fill-opacity:1;stroke:#000000;stroke-width:4;stroke-miterlimit:4;stroke-dasharray:none;stroke-dashoffset:0;stroke-opacity:1"
       d="m 494.28571,262.36221 c 0,32.59642 -22.32906,59.40481 -54.18576,81.57221 -35.22672,24.51242 -82.73997,42.71351 -138.67139,42.71351 -42.0353,0 -103.78671,-11.52384 -135.47215,-26.23577 -48.60141,-22.56621 -57.385,-56.49825 -57.385,-98.04995 0,-31.76372 18.48978,-89.31582 48.91158,-111.28733 35.31944,-25.50873 94.72892,-33.98238 143.94557,-32.99838 52.3067,1.04578 112.37611,6.37762 151.45913,41.15696 27.67225,24.62508 41.39802,75.15574 41.39802,103.12875 z"
       id="path4136"
       inkscape:connector-curvature="0"
       sodipodi:nodetypes="ssssssaas" />
    <path
       style="fill:none;fill-rule:evenodd;stroke:#000000;stroke-width:4;stroke-linecap:butt;stroke-linejoin:miter;stroke-miterlimit:4;stroke-dasharray:none;stroke-opacity:1"
       d="m 164.28571,65.219347 27.14286,42.857143"
       id="path4143"
       inkscape:connector-curvature="0" />
    <path
       style="fill:none;fill-rule:evenodd;stroke:#000000;stroke-width:4;stroke-linecap:butt;stroke-linejoin:miter;stroke-miterlimit:4;stroke-dasharray:none;stroke-opacity:1"
       d="M 447.14286,60.933633 410,113.79078"
       id="path4145"
       inkscape:connector-curvature="0"
       sodipodi:nodetypes="cc" />
    <ellipse
       style="fill:#ffffff;fill-opacity:1;stroke:#000000;stroke-width:5.10057116;stroke-miterlimit:4;stroke-dasharray:none;stroke-opacity:1"
       id="path4191"
       cx="210.45161"
       cy="202.87654"
       rx="28.790373"
       ry="30.341892" />
    <ellipse
       style="fill:#000000;fill-opacity:1;stroke:#000000;stroke-width:5.25509644;stroke-miterlimit:4;stroke-dasharray:none;stroke-opacity:1"
       id="path4195"
       cx="216.55423"
       cy="204.94524"
       rx="5.4403439"
       ry="6.47469" />
    <ellipse
       ry="31.166399"
       rx="29.572721"
       cy="200.01788"
       cx="348.77582"
       id="ellipse4757"
       style="fill:#ffffff;fill-opacity:1;stroke:#000000;stroke-width:5.23917389;stroke-miterlimit:4;stroke-dasharray:none;stroke-opacity:1" />
    <ellipse
       ry="6.6506324"
       rx="5.5881796"
       cy="202.14278"
       cx="345.48221"
       id="ellipse4759"
       style="fill:#000000;fill-opacity:1;stroke:#000000;stroke-width:5.39789772;stroke-miterlimit:4;stroke-dasharray:none;stroke-opacity:1" />
    <path
       sodipodi:nodetypes="sssssssss"
       inkscape:connector-curvature="0"
       id="path4761"
       d="m 369.79607,293.4339 c 1.34342,15.75468 -8.34393,29.63213 -22.82748,41.65915 -16.01573,13.29931 -38.22998,24.05458 -65.26306,26.35972 -20.31675,1.73243 -50.63774,-1.29232 -66.55847,-7.0971 -24.42035,-8.90379 -30.06415,-24.942 -31.77666,-45.02502 -1.3091,-15.35223 6.07982,-34.26415 19.87792,-46.13734 16.01949,-13.78468 40.55503,-19.52313 68.21263,-21.88152 30.50058,-2.60082 56.65048,0.50572 74.90034,13.65001 12.55292,9.04113 22.28191,24.95202 23.43478,38.4721 z"
       style="fill:#ffffff;fill-opacity:1;stroke:#000000;stroke-width:5.09730148;stroke-miterlimit:4;stroke-dasharray:none;stroke-dashoffset:0;stroke-opacity:1" />
    <path
       style="fill:none;fill-rule:evenodd;stroke:#000000;stroke-width:5.09730148;stroke-linecap:butt;stroke-linejoin:miter;stroke-miterlimit:4;stroke-dasharray:none;stroke-opacity:1"
       d="M 363.01621,273.62018 389.41294,246.3132"
       id="path4763"
       inkscape:connector-curvature="0"
       sodipodi:nodetypes="cc" />
    <path
       style="fill:none;fill-rule:evenodd;stroke:#000000;stroke-width:5.09730148;stroke-linecap:butt;stroke-linejoin:miter;stroke-miterlimit:4;stroke-dasharray:none;stroke-opacity:1"
       d="m 366.65713,282.7225 31.85814,-10.92279"
       id="path4765"
       inkscape:connector-curvature="0" />
    <path
       style="fill:none;fill-rule:evenodd;stroke:#000000;stroke-width:5.09730148;stroke-linecap:butt;stroke-linejoin:miter;stroke-miterlimit:4;stroke-dasharray:none;stroke-opacity:1"
       d="m 370.29806,293.64529 30.94791,10.92279"
       id="path4767"
       inkscape:connector-curvature="0"
       sodipodi:nodetypes="cc" />
    <path
       style="fill:none;fill-rule:evenodd;stroke:#000000;stroke-width:5.09730148;stroke-linecap:butt;stroke-linejoin:miter;stroke-miterlimit:4;stroke-dasharray:none;stroke-opacity:1"
       d="m 183.70042,307.29877 -28.21721,10.92279"
       id="path4769"
       inkscape:connector-curvature="0"
       sodipodi:nodetypes="cc" />
    <path
       style="fill:none;fill-rule:evenodd;stroke:#000000;stroke-width:5.09730148;stroke-linecap:butt;stroke-linejoin:miter;stroke-miterlimit:4;stroke-dasharray:none;stroke-opacity:1"
       d="m 180.96971,298.19645 -29.12743,0"
       id="path4771"
       inkscape:connector-curvature="0" />
    <path
       style="fill:none;fill-rule:evenodd;stroke:#000000;stroke-width:5.09730148;stroke-linecap:butt;stroke-linejoin:miter;stroke-miterlimit:4;stroke-dasharray:none;stroke-opacity:1"
       d="m 184.61065,286.36344 -33.6786,-14.56373"
       id="path4773"
       inkscape:connector-curvature="0"
       sodipodi:nodetypes="cc" />
    <path
       style="fill:#ffd5d5;fill-rule:evenodd;stroke:#000000;stroke-width:5.09730148;stroke-linecap:butt;stroke-linejoin:miter;stroke-miterlimit:4;stroke-dasharray:none;stroke-opacity:1"
       d="m 241.9553,246.3132 30.94789,23.66604 26.39675,-28.2172"
       id="path4775"
       inkscape:connector-curvature="0" />
    <path
       style="fill:none;fill-rule:evenodd;stroke:#000000;stroke-width:5.09730148;stroke-linecap:butt;stroke-linejoin:miter;stroke-miterlimit:4;stroke-dasharray:none;stroke-opacity:1"
       d="m 200.0846,290.00436 c 0,0 16.75082,26.72731 36.40929,23.66604 24.51044,-3.81684 37.31954,-43.69116 37.31954,-43.69116 0,0 12.29592,38.64529 36.40929,35.49907 22.99928,-3.00086 29.12743,-30.03766 29.12743,-30.03766"
       id="path4777"
       inkscape:connector-curvature="0"
       sodipodi:nodetypes="cscsc" />
    <path
       style="fill:#803300;fill-rule:evenodd;stroke:#000000;stroke-width:4;stroke-linecap:butt;stroke-linejoin:miter;stroke-miterlimit:4;stroke-dasharray:none;stroke-opacity:1"
       d="m 1186.0715,-11.566368 11.7856,56.071429 23.5714,-11.785714 c 0,0 14.9108,-5.532634 18.9287,-11.785715 4.0229,-6.261087 5.7557,-15.4802483 2.8571,-22.142857 -2.962,-6.8085807 -11.5037,-14.315626 -18.9286,-14.285714 -13.2762,0.05348 -38.2142,3.928571 -38.2142,3.928571 z"
       id="path4807"
       inkscape:connector-curvature="0"
       sodipodi:nodetypes="cccsssc" />
    <path
       style="fill:none;fill-rule:evenodd;stroke:#000000;stroke-width:4;stroke-linecap:butt;stroke-linejoin:miter;stroke-opacity:1;stroke-miterlimit:4;stroke-dasharray:none"
       d="m 437.90144,689.98767 -4.04061,-40.4061"
       id="path4815"
       inkscape:connector-curvature="0" />
    <path
       style="fill:none;fill-rule:evenodd;stroke:#000000;stroke-width:4;stroke-linecap:butt;stroke-linejoin:miter;stroke-opacity:1;stroke-miterlimit:4;stroke-dasharray:none"
       d="m 843.98277,692.00798 -4.04061,-38.3858"
       id="path4817"
       inkscape:connector-curvature="0" />
    <path
       style="fill:none;fill-rule:evenodd;stroke:#000000;stroke-width:4;stroke-linecap:butt;stroke-linejoin:miter;stroke-opacity:1;stroke-miterlimit:4;stroke-dasharray:none"
       d="m 381.3329,675.84554 -4.04061,-28.28427"
       id="path4819"
       inkscape:connector-curvature="0" />
    <path
       style="fill:#803300;fill-opacity:1;fill-rule:evenodd;stroke:#000000;stroke-width:4;stroke-linecap:butt;stroke-linejoin:miter;stroke-miterlimit:4;stroke-dasharray:none;stroke-opacity:1"
       d="m 554.4874,218.19567 c 16.25816,43.96351 19.65918,94.3556 18.77449,140.46197 31.26036,-52.54976 36.46851,-95.96961 33.75345,-147.23717"
       id="path4823"
       inkscape:connector-curvature="0"
       sodipodi:nodetypes="ccc" />
    <path
       style="fill:#803300;fill-opacity:1;fill-rule:evenodd;stroke:#000000;stroke-width:4;stroke-linecap:butt;stroke-linejoin:miter;stroke-miterlimit:4;stroke-dasharray:none;stroke-opacity:1"
       d="m 649.02332,209.66014 c 12.18371,50.42593 4.78584,100.59187 -3.03045,151.0178 40.61018,-51.87097 64.61263,-92.98825 54.04316,-146.97719"
       id="path4825"
       inkscape:connector-curvature="0"
       sodipodi:nodetypes="ccc" />
    <path
       style="fill:#803300;fill-opacity:1;fill-rule:evenodd;stroke:#000000;stroke-width:4;stroke-linecap:butt;stroke-linejoin:miter;stroke-miterlimit:4;stroke-dasharray:none;stroke-opacity:1"
       d="m 737.41168,219.76167 c 11.11168,51.8545 10.60659,94.11254 5.55583,138.89597 26.60068,-39.73267 39.05923,-82.49579 45.96194,-128.79445"
       id="path4827"
       inkscape:connector-curvature="0"
       sodipodi:nodetypes="ccc" />
    <path
       style="fill:#803300;fill-opacity:1;fill-rule:evenodd;stroke:#000000;stroke-width:4;stroke-linecap:butt;stroke-linejoin:miter;stroke-miterlimit:4;stroke-dasharray:none;stroke-opacity:1"
       d="m 825.29494,243.50025 c 9.42809,44.78343 6.73436,77.44503 -1.51522,115.15739 22.56007,-27.27412 39.05922,-53.53808 45.96193,-88.89342"
       id="path4829"
       inkscape:connector-curvature="0"
       sodipodi:nodetypes="ccc" />
    <path
       style="fill:#803300;fill-opacity:1;fill-rule:evenodd;stroke:#000000;stroke-width:4;stroke-linecap:butt;stroke-linejoin:miter;stroke-miterlimit:4;stroke-dasharray:none;stroke-opacity:1"
       d="m 911.42855,264.94634 7.9572,5.3048 c 13.0244,6.57362 15.09752,11.84614 20.33684,-4.50036 l 1.70596,-10.80444"
       id="path4831"
       inkscape:connector-curvature="0"
       sodipodi:nodetypes="cccc" />
    <path
       style="fill:#803300;fill-opacity:1;fill-rule:evenodd;stroke:#000000;stroke-width:4;stroke-linecap:butt;stroke-linejoin:miter;stroke-miterlimit:4;stroke-dasharray:none;stroke-opacity:1"
       d="m 974.97064,243.08296 8.77288,3.80716 c 13.98487,4.15581 16.96148,8.97629 19.21418,-8.04088 l -0.2401,-10.93566"
       id="path4831-4"
       inkscape:connector-curvature="0"
       sodipodi:nodetypes="cccc" />
    <path
       style="fill:#803300;fill-opacity:1;fill-rule:evenodd;stroke:#000000;stroke-width:4;stroke-linecap:butt;stroke-linejoin:miter;stroke-miterlimit:4;stroke-dasharray:none;stroke-opacity:1"
       d="m 1026.1419,201.40696 8.5363,-4.3115 c 12.1367,-8.09616 17.7464,-7.30292 6.1019,-19.91502 l -8.5621,-6.80712"
       id="path4831-4-9"
       inkscape:connector-curvature="0"
       sodipodi:nodetypes="cccc"
       inkscape:transform-center-x="-11.601556"
       inkscape:transform-center-y="2.9206262" />
    <path
       style="fill:#803300;fill-opacity:1;fill-rule:evenodd;stroke:#000000;stroke-width:4;stroke-linecap:butt;stroke-linejoin:miter;stroke-miterlimit:4;stroke-dasharray:none;stroke-opacity:1"
       d="m 1031.5676,122.18669 7.8248,-5.49817 c 10.8414,-9.76276 16.5068,-9.7873 3.1642,-20.587098 l -9.4547,-5.500357"
       id="path4831-4-9-7"
       inkscape:connector-curvature="0"
       sodipodi:nodetypes="cccc"
       inkscape:transform-center-x="-13.121231"
       inkscape:transform-center-y="2.2946857" />
    <path
       style="fill:#803300;fill-opacity:1;fill-rule:evenodd;stroke:#000000;stroke-width:4;stroke-linecap:butt;stroke-linejoin:miter;stroke-miterlimit:4;stroke-dasharray:none;stroke-opacity:1"
       d="m 1048.7119,43.916856 9.3054,2.206186 c 14.4976,1.633517 18.275,5.855909 17.5021,-11.292363 l -2.1581,-10.723244"
       id="path4831-4-9-7-0"
       inkscape:connector-curvature="0"
       sodipodi:nodetypes="cccc"
       inkscape:transform-center-x="-2.3982938"
       inkscape:transform-center-y="6.8311771" />
    <path
       style="fill:#803300;fill-opacity:1;fill-rule:evenodd;stroke:#000000;stroke-width:4;stroke-linecap:butt;stroke-linejoin:miter;stroke-miterlimit:4;stroke-dasharray:none;stroke-opacity:1"
       d="m 1117.2688,4.4114084 7.5834,5.8266196 c 12.5541,7.432549 14.2689,12.832288 20.5929,-3.1259888 l 2.4271,-10.665592"
       id="path4831-4-9-7-0-5"
       inkscape:connector-curvature="0"
       sodipodi:nodetypes="cccc"
       inkscape:transform-center-x="0.84534396"
       inkscape:transform-center-y="11.511666" />
  </g>
</svg>
